<svg width="24" height="24" viewBox="0 0 24 24" xmlns="http://www.w3.org/2000/svg">
<path d="M11.236 12.7641C11.588 13.1151 11.588 13.6851 11.236 14.0371C10.885 14.3891 10.315 14.3891 9.963 14.0371C9.611 13.6861 9.611 13.1161 9.963 12.7641C10.314 12.4121 10.884 12.4121 11.236 12.7641ZM20.024 19.6921L22.166 21.8341L21.035 22.9651L18.893 20.8231C18.184 21.3121 17.326 21.5991 16.401 21.5991C14.985 21.5991 13.724 20.9261 12.918 19.8831L4.447 22.3031C4.338 22.3341 4.228 22.3491 4.118 22.3491C3.804 22.3491 3.497 22.2261 3.269 21.9981L2.635 21.3641L2.001 20.7301C1.693 20.4221 1.576 19.9711 1.696 19.5521L4.765 8.80909C4.887 8.38209 5.232 8.05909 5.666 7.96609L10.517 6.92109C9.91 6.13709 9.964 5.00309 10.683 4.28409L13.2 1.76709L22.231 10.7981L19.714 13.3151C19.533 13.4961 19.325 13.6331 19.103 13.7301C20.134 14.5361 20.799 15.7901 20.799 17.1981C20.799 18.1231 20.512 18.9811 20.023 19.6901L20.024 19.6921ZM11.814 5.98309L18.017 12.1861C18.173 12.3421 18.427 12.3421 18.583 12.1861L19.969 10.8001L13.2 4.03109L11.814 5.41709C11.658 5.57309 11.658 5.82709 11.814 5.98309ZM12.177 18.4321C12.063 18.0411 12 17.6281 12 17.2001C12 15.0571 13.54 13.2691 15.571 12.8791L15.726 12.1571L11.842 8.27309L6.237 9.48009L3.377 19.4901L8.234 14.6331L9.365 15.7641L4.508 20.6211L12.176 18.4301L12.177 18.4321ZM19.2 17.2001C19.2 15.6561 17.944 14.4001 16.4 14.4001C14.856 14.4001 13.6 15.6561 13.6 17.2001C13.6 18.7441 14.856 20.0001 16.4 20.0001C17.944 20.0001 19.2 18.7441 19.2 17.2001Z"/>
</svg>
